<svg width="315" height="315" xmlns="http://www.w3.org/2000/svg" xmlns:xlink="http://www.w3.org/1999/xlink" xml:space="preserve" overflow="hidden"><defs><clipPath id="clip0"><rect x="3721" y="772" width="315" height="315"/></clipPath></defs><g clip-path="url(#clip0)" transform="translate(-3721 -772)"><path d="M3721 929.5C3721 842.515 3791.52 772 3878.5 772 3965.48 772 4036 842.515 4036 929.5 4036 1016.48 3965.48 1087 3878.5 1087 3791.52 1087 3721 1016.48 3721 929.5Z" fill="#609A76" fill-rule="evenodd"/><path d="M3939.58 973.858 3946.65 929.857 3905.05 929.857 3905.05 899.215C3905.05 886.643 3909.76 877.215 3928.59 877.215L3949 877.215 3949 837.143C3938.01 835.571 3925.45 834 3914.47 834 3878.36 834 3853.24 856 3853.24 895.286L3853.24 929.857 3814 929.857 3814 973.858 3853.24 973.858 3853.24 1084.64C3861.88 1086.22 3870.51 1087 3879.15 1087 3887.78 1087 3896.41 1086.22 3905.05 1084.64L3905.05 973.858 3939.58 973.858Z" fill-rule="evenodd"/></g></svg>