<svg width="1278" height="502" xmlns="http://www.w3.org/2000/svg" xmlns:xlink="http://www.w3.org/1999/xlink" xml:space="preserve" overflow="hidden"><g transform="translate(-145 -1839)"><path d="M145 1918 153.89 1927.2C206.38 1974.54 263.42 1987.99 316.82 2018.72 388.019 2059.7 457.061 2091.51 530.418 2112.54 603.775 2133.57 681.448 2137.34 756.962 2144.89 832.477 2152.44 912.307 2168.08 983.506 2157.83 1054.71 2147.59 1119.43 2116.85 1184.16 2083.42 1248.89 2049.99 1302.29 2000.39 1371.87 1957.25 1380.56 1951.86 1389.55 1947.33 1398.75 1943.33L1423 1934.09 1423 2341 145 2341Z" fill="#EDE82F" fill-rule="evenodd"/><path d="M1423 1839 1423 1964.59 1398.89 1986.48C1231.03 2124.87 1015.83 2208 781.192 2208 546.555 2208 331.355 2124.87 163.496 1986.48L145 1969.69 145 1845.17 159.682 1861.31C318.74 2020.2 538.477 2118.48 781.192 2118.48 1023.91 2118.48 1243.64 2020.2 1402.7 1861.31Z" fill="#404040" fill-rule="evenodd"/></g></svg>