<svg width="1278" height="507" xmlns="http://www.w3.org/2000/svg" xmlns:xlink="http://www.w3.org/1999/xlink" xml:space="preserve" overflow="hidden"><defs><clipPath id="clip0"><rect x="145" y="134" width="1278" height="507"/></clipPath></defs><g clip-path="url(#clip0)" transform="translate(-145 -134)"><path d="M145 134 1423 134 1423 556 1412.25 547.309C1364.18 511.672 1312.4 491.049 1252.12 459.507 1171.75 417.451 1080.06 360.298 977.033 336.574 874.01 312.85 739.162 299.91 633.981 317.164 528.8 334.417 437.373 387.257 345.947 440.096L268.275 501.563C234.158 511.672 200.042 521.782 167.24 536.036L145 547.611Z" fill="#EDE82F" fill-rule="evenodd"/><path d="M781.192 267C1015.83 267 1231.03 350.123 1398.89 488.498L1423 510.387 1423 641 1402.7 618.692C1243.64 459.813 1023.91 361.544 781.192 361.544 538.477 361.544 318.74 459.813 159.682 618.692L145 634.828 145 505.289 163.496 488.498C331.355 350.123 546.555 267 781.192 267Z" fill="#404040" fill-rule="evenodd"/></g></svg>