<svg width="260" height="261" xmlns="http://www.w3.org/2000/svg" xmlns:xlink="http://www.w3.org/1999/xlink" xml:space="preserve" overflow="hidden"><defs><filter id="fx0" x="-10%" y="-10%" width="120%" height="120%" filterUnits="userSpaceOnUse" primitiveUnits="userSpaceOnUse"><feComponentTransfer color-interpolation-filters="sRGB"><feFuncR type="discrete" tableValues="0 0"/><feFuncG type="discrete" tableValues="0 0"/><feFuncB type="discrete" tableValues="0 0"/><feFuncA type="linear" slope="0.219608" intercept="0"/></feComponentTransfer><feGaussianBlur stdDeviation="5.34722 5.36819"/></filter><clipPath id="clip1"><rect x="337" y="1645" width="260" height="261"/></clipPath><radialGradient cx="0" cy="0" r="1020813" fy="-9.2074e-11" gradientUnits="userSpaceOnUse" spreadMethod="pad" id="fill2" gradientTransform="matrix(0.000360892 0 0 0.000360892 337 1645)"><stop offset="0" stop-color="#EDE82F"/><stop offset="0.47" stop-color="#EDE82F"/><stop offset="0.87" stop-color="#ED7A3B"/><stop offset="1" stop-color="#ED7A3B"/></radialGradient><radialGradient cx="249382" cy="247996" r="351700" gradientUnits="userSpaceOnUse" spreadMethod="pad" id="fill3" gradientTransform="matrix(0.000360892 0 0 0.000360892 377 1686)"><stop offset="0"/><stop offset="0.45"/><stop offset="0.62" stop-color="#3A3A3A"/><stop offset="0.77"/><stop offset="1"/></radialGradient></defs><g clip-path="url(#clip1)" transform="translate(-337 -1645)"><path d="M337 1775.5C337 1703.43 395.203 1645 467 1645 538.797 1645 597 1703.43 597 1775.5 597 1847.57 538.797 1906 467 1906 395.203 1906 337 1847.57 337 1775.5Z" fill="url(#fill2)" fill-rule="evenodd"/><path d="M397 1775C397 1736.34 428.34 1705 467 1705 505.66 1705 537 1736.34 537 1775 537 1813.66 505.66 1845 467 1845 428.34 1845 397 1813.66 397 1775Z" fill="#747474" fill-rule="evenodd"/><path d="M412.125 1734.91 466.122 1775.41 487.954 1711.42 466.122 1775.41 533.612 1776.36 466.122 1775.41 486.001 1839.98 466.122 1775.41 410.918 1814.37 466.122 1775.41Z" stroke="#000000" stroke-width="13.75" stroke-linecap="round" stroke-miterlimit="8" fill-rule="evenodd"/><g filter="url(#fx0)" transform="matrix(2 0 0 1.99219 339 1648)"><g><path d="M63.9999 28.7991C44.6285 28.7991 28.9248 44.4767 28.9248 63.816 28.9248 83.1554 44.6285 98.833 63.9999 98.833 83.3713 98.833 99.075 83.1554 99.075 63.816 99.075 44.4767 83.3713 28.7991 63.9999 28.7991ZM64 16.8283C90.0954 16.8283 111.25 37.9478 111.25 64 111.25 90.0523 90.0954 111.172 64 111.172 37.9045 111.172 16.75 90.0523 16.75 64 16.75 37.9478 37.9045 16.8283 64 16.8283Z" fill="#FF0000" fill-rule="evenodd"/></g></g><path d="M467 1708.71C430.102 1708.71 400.19 1738.46 400.19 1775.15 400.19 1811.84 430.102 1841.59 467 1841.59 503.898 1841.59 533.809 1811.84 533.809 1775.15 533.809 1738.46 503.898 1708.71 467 1708.71ZM467 1686C516.706 1686 557 1726.07 557 1775.5 557 1824.93 516.706 1865 467 1865 417.294 1865 377 1824.93 377 1775.5 377 1726.07 417.294 1686 467 1686Z" fill="url(#fill3)" fill-rule="evenodd"/></g></svg>