<svg width="258" height="259" xmlns="http://www.w3.org/2000/svg" xmlns:xlink="http://www.w3.org/1999/xlink" xml:space="preserve" overflow="hidden"><g transform="translate(-311 -1332)"><path d="M358.549 1357 398.451 1357C415.323 1357 429 1370.68 429 1387.55L429 1591 328 1591 328 1387.55C328 1370.68 341.677 1357 358.549 1357Z" fill="#ED7A3B" fill-rule="evenodd"/><rect x="348" y="1332" width="61.0002" height="25.0001" fill="#262626"/><path d="M467.834 1396 535.166 1396 552 1412.83 552 1528 552 1528 451 1528 451 1528 451 1412.83Z" fill="#EBE615" fill-rule="evenodd"/><path d="M541.173 1590 461.827 1590 451 1579.17 451 1458 451 1458 552 1458 552 1458 552 1579.17Z" fill="#EBE615" fill-rule="evenodd"/><rect x="468" y="1386" width="67" height="10" fill="#A6A6A6"/></g></svg>