<svg width="315" height="314" xmlns="http://www.w3.org/2000/svg" xmlns:xlink="http://www.w3.org/1999/xlink" xml:space="preserve" overflow="hidden"><defs><clipPath id="clip0"><rect x="3724" y="1565" width="315" height="314"/></clipPath></defs><g clip-path="url(#clip0)" transform="translate(-3724 -1565)"><path d="M3724 1722C3724 1635.29 3794.51 1565 3881.5 1565 3968.48 1565 4039 1635.29 4039 1722 4039 1808.71 3968.48 1879 3881.5 1879 3794.51 1879 3724 1808.71 3724 1722Z" fill="#609A76" fill-rule="evenodd"/><path d="M3883.4 1644.07C3842.31 1644.07 3808.9 1677.32 3808.88 1718.2 3808.86 1732.15 3812.81 1745.83 3820.27 1757.65L3822.04 1760.45 3814.52 1787.81 3842.71 1780.45 3845.43 1782.06C3856.87 1788.81 3869.98 1792.38 3883.35 1792.39L3883.38 1792.39C3924.43 1792.39 3957.85 1759.13 3957.87 1718.26 3957.93 1698.58 3950.08 1679.69 3936.07 1665.81 3922.13 1651.85 3903.17 1644.02 3883.4 1644.07ZM3883.38 1629C3907.35 1629.01 3929.85 1638.3 3946.77 1655.16 3963.7 1672.02 3973.01 1694.43 3973 1718.26 3972.98 1767.44 3932.77 1807.46 3883.38 1807.46L3883.34 1807.46C3868.34 1807.45 3853.6 1803.7 3840.51 1796.6L3793 1809 3805.72 1762.78C3797.86 1749.22 3793.73 1733.84 3793.75 1718.19 3793.77 1669.01 3833.98 1629 3883.38 1629Z" fill-rule="evenodd"/><path d="M3861.14 1680.9C3859.46 1677.19 3857.69 1677.12 3856.1 1677.05L3851.81 1677C3850.31 1677 3847.89 1677.56 3845.84 1679.79 3843.79 1682.02 3838 1687.41 3838 1698.37 3838 1709.34 3846.02 1719.93 3847.14 1721.42 3848.26 1722.91 3862.63 1746.12 3885.39 1755.06 3904.3 1762.48 3908.15 1761 3912.26 1760.63 3916.36 1760.26 3925.5 1755.24 3927.37 1750.04 3929.23 1744.83 3929.23 1740.38 3928.68 1739.44 3928.12 1738.51 3926.62 1737.96 3924.38 1736.84 3922.14 1735.73 3911.14 1730.34 3909.08 1729.59 3907.03 1728.85 3905.54 1728.48 3904.04 1730.71 3902.55 1732.94 3898.26 1737.96 3896.96 1739.44 3895.65 1740.93 3894.35 1741.12 3892.11 1740 3889.86 1738.89 3882.65 1736.54 3874.1 1728.94 3867.44 1723.04 3862.95 1715.74 3861.64 1713.51 3860.34 1711.28 3861.51 1710.08 3862.63 1708.97 3863.63 1707.97 3864.87 1706.36 3865.99 1705.06 3867.11 1703.76 3867.48 1702.83 3868.22 1701.35 3868.97 1699.86 3868.6 1698.56 3868.04 1697.45 3867.48 1696.33 3863.13 1685.31 3861.14 1680.9" fill-rule="evenodd"/></g></svg>