<svg width="315" height="315" xmlns="http://www.w3.org/2000/svg" xmlns:xlink="http://www.w3.org/1999/xlink" xml:space="preserve" overflow="hidden"><g transform="translate(-3721 -1168)"><path d="M3721 1325.5C3721 1238.52 3791.52 1168 3878.5 1168 3965.48 1168 4036 1238.52 4036 1325.5 4036 1412.48 3965.48 1483 3878.5 1483 3791.52 1483 3721 1412.48 3721 1325.5Z" fill="#609A76" fill-rule="evenodd"/><path d="M3895.74 1316.07 3963.13 1239 3947.17 1239 3888.62 1305.91 3841.9 1239 3788 1239 3858.67 1340.19 3788 1421 3803.96 1421 3865.75 1350.33 3915.1 1421 3969 1421M3809.73 1250.84 3834.25 1250.84 3947.15 1409.74 3922.62 1409.74" fill-rule="evenodd"/></g></svg>